<?xml version="1.0" standalone="no"?>
<!DOCTYPE svg PUBLIC "-//W3C//DTD SVG 20010904//EN"
 "http://www.w3.org/TR/2001/REC-SVG-20010904/DTD/svg10.dtd">
<svg version="1.0" xmlns="http://www.w3.org/2000/svg"
 width="512.000000pt" height="512.000000pt" viewBox="0 0 512.000000 512.000000"
 preserveAspectRatio="xMidYMid meet">

<g transform="translate(0.000000,512.000000) scale(0.100000,-0.100000)"
fill="#000000" stroke="none">
<path d="M2351 5109 c-354 -37 -735 -194 -1011 -416 -80 -64 -233 -217 -300
-298 -322 -394 -484 -933 -429 -1433 34 -314 150 -638 316 -883 32 -48 393
-535 803 -1083 l744 -996 86 0 86 0 744 996 c410 548 771 1035 803 1083 32 47
87 143 121 212 271 546 273 1179 7 1724 -365 744 -1148 1179 -1970 1094z m344
-1314 c39 -8 108 -33 155 -56 169 -83 307 -260 345 -444 31 -146 12 -285 -56
-425 -59 -119 -170 -230 -289 -289 -193 -94 -387 -94 -580 0 -119 59 -230 170
-289 289 -94 193 -94 387 0 580 82 167 259 306 439 344 86 19 189 19 275 1z"/>
</g>
</svg>
